<svg width="156" height="110" viewBox="0 0 156 110" fill="none" xmlns="http://www.w3.org/2000/svg">
<path d="M43.1791 65.5076V71.7037H50.4746V74.7018H43.1791V80.2483H50.4746V83.2964H43.1791V89.4426H39.8812V65.5076H43.1791ZM8.50082 86.2446C5.76919 84.2125 4.40338 81.3477 4.40338 77.65C4.40338 73.9523 5.76919 71.0874 8.50082 69.0553C10.8993 67.3231 13.9974 66.457 17.795 66.457C21.5926 66.457 24.6907 67.3231 27.0892 69.0553C29.8208 71.0874 31.1866 73.9523 31.1866 77.65C31.1866 81.3477 29.8208 84.2125 27.0892 86.2446C24.6907 87.9768 21.5926 88.843 17.795 88.843C13.9974 88.843 10.8993 87.9768 8.50082 86.2446ZM10.2997 71.5038C8.40088 72.9029 7.45148 74.9517 7.45148 77.65C7.45148 80.315 8.40088 82.3637 10.2997 83.7961C12.1319 85.1619 14.6137 85.8448 17.745 85.8448C20.9097 85.8448 23.4248 85.1619 25.2903 83.7961C27.1891 82.3637 28.1385 80.315 28.1385 77.65C28.1385 74.9517 27.1891 72.9029 25.2903 71.5038C23.4248 70.138 20.9097 69.4551 17.745 69.4551C14.6137 69.4551 12.1319 70.138 10.2997 71.5038ZM42.0798 92.7905C42.3796 92.7905 42.6295 92.9071 42.8294 93.1403C43.0625 93.3402 43.1791 93.59 43.1791 93.8898V108.98H39.8812V95.7886H7.40151V92.7905H42.0798Z" fill="black"/>
<path d="M104.768 65.6575V76.1009H112.014V79.149H104.768V89.5925H101.47V65.6575H104.768ZM86.2299 69.9548L92.2262 86.7942L88.7784 86.8942L83.1319 71.1041C82.8654 70.4045 82.3657 70.0547 81.6328 70.0547H74.937L69.2406 86.7942H66.0925L71.839 69.7549H66.2924V66.7568H77.4854V62.9092H80.7834V66.7568H92.0263V69.7549H86.13L86.2299 69.9548ZM68.7909 95.3389V92.2908H104.918V95.3389H95.1744L104.519 109.08H100.521L91.4767 95.7387H82.2324L73.1881 109.08H69.2406L78.5348 95.3389H68.7909Z" fill="black"/>
<path d="M151.317 108.98V65.5076H154.615V108.98H151.317ZM141.424 66.8067C141.723 66.8067 141.973 66.9233 142.173 67.1565C142.373 67.3564 142.473 67.6062 142.473 67.9061V107.381H139.175V69.8548H116.689V66.8067H141.424Z" fill="black"/>
<circle cx="23.8105" cy="23.8105" r="23.8105" fill="#FFE57E"/>
<rect x="55.0105" width="19.7053" height="47.6211" rx="9.85263" fill="#B4ED88"/>
<rect x="82.1053" width="18.8842" height="18.8842" rx="9.44211" fill="#FFC3C4"/>
<rect x="82.1053" y="28.7369" width="18.8842" height="18.8842" rx="9.44211" fill="#FFC3C4"/>
<path d="M150 0H112.337C106.971 0 104.303 6.5053 108.125 10.2726L145.788 47.4051C149.579 51.1436 156 48.4574 156 43.1325V6C156 2.68629 153.314 0 150 0Z" fill="#88E3ED"/>
</svg>
